<svg xmlns="http://www.w3.org/2000/svg" xmlns:xlink="http://www.w3.org/1999/xlink" width="500" zoomAndPan="magnify" viewBox="0 0 375 374.999991" height="500" preserveAspectRatio="xMidYMid meet" version="1.0"><defs><clipPath id="5f49d2aa3f"><path d="M 64 84 L 197 84 L 197 311.167969 L 64 311.167969 Z M 64 84 " clip-rule="nonzero"/></clipPath><clipPath id="622d109bad"><path d="M 186 64 L 311.167969 64 L 311.167969 285 L 186 285 Z M 186 64 " clip-rule="nonzero"/></clipPath></defs><g clip-path="url(#5f49d2aa3f)"><path fill="#c2c2c2" d="M 188.089844 294.140625 C 129.492188 294.140625 81.917969 246.566406 81.917969 187.96875 C 81.917969 152.078125 99.773438 120.320312 127.0625 101.101562 C 131.082031 98.269531 132.039062 92.726562 129.222656 88.71875 C 126.402344 84.703125 120.84375 83.742188 116.839844 86.5625 C 84.976562 109.003906 64.144531 146.070312 64.144531 187.96875 C 64.144531 256.375 119.683594 311.914062 188.089844 311.914062 C 192.996094 311.914062 196.976562 307.933594 196.976562 303.027344 C 196.976562 298.121094 192.996094 294.140625 188.089844 294.140625 Z M 188.089844 294.140625 " fill-opacity="1" fill-rule="evenodd"/></g><g clip-path="url(#622d109bad)"><path fill="#c2c2c2" d="M 194.9375 82.011719 C 250.34375 85.542969 294.257812 131.671875 294.257812 187.96875 C 294.257812 220.332031 279.753906 249.3125 256.898438 268.792969 C 253.164062 271.980469 252.714844 277.597656 255.902344 281.332031 C 259.078125 285.0625 264.695312 285.515625 268.425781 282.328125 C 295.113281 259.585938 312.03125 225.734375 312.03125 187.96875 C 312.03125 122.242188 260.761719 68.398438 196.0625 64.273438 C 191.167969 63.964844 186.9375 67.6875 186.632812 72.582031 C 186.324219 77.472656 190.042969 81.703125 194.9375 82.011719 Z M 194.9375 82.011719 " fill-opacity="1" fill-rule="evenodd"/></g><path fill="#c2c2c2" d="M 298.167969 273.226562 L 259.730469 273.226562 C 259.730469 273.226562 259.730469 234.785156 259.730469 234.785156 C 259.730469 229.882812 255.75 225.898438 250.84375 225.898438 C 245.9375 225.898438 241.957031 229.882812 241.957031 234.785156 L 241.957031 282.113281 C 241.957031 287.019531 245.9375 291 250.84375 291 L 298.167969 291 C 303.074219 291 307.054688 287.019531 307.054688 282.113281 C 307.054688 277.207031 303.074219 273.226562 298.167969 273.226562 Z M 298.167969 273.226562 " fill-opacity="1" fill-rule="evenodd"/><path fill="#c2c2c2" d="M 84.878906 92.261719 L 123.308594 92.261719 C 123.308594 92.261719 123.308594 130.691406 123.308594 130.691406 C 123.308594 135.597656 127.289062 139.578125 132.195312 139.578125 C 137.101562 139.578125 141.082031 135.597656 141.082031 130.691406 L 141.082031 83.375 C 141.082031 78.46875 137.113281 74.488281 132.195312 74.488281 L 84.878906 74.488281 C 79.976562 74.488281 75.992188 78.46875 75.992188 83.375 C 75.992188 88.28125 79.976562 92.261719 84.878906 92.261719 Z M 84.878906 92.261719 " fill-opacity="1" fill-rule="evenodd"/></svg>