<svg xmlns="http://www.w3.org/2000/svg" xmlns:xlink="http://www.w3.org/1999/xlink" width="500" zoomAndPan="magnify" viewBox="0 0 375 374.999991" height="500" preserveAspectRatio="xMidYMid meet" version="1.0"><defs><clipPath id="ab1f6bed5b"><path d="M 65.105469 65.105469 L 309.605469 65.105469 L 309.605469 309.605469 L 65.105469 309.605469 Z M 65.105469 65.105469 " clip-rule="nonzero"/></clipPath><clipPath id="8eaa1eef1b"><path d="M 65.105469 140 L 215 140 L 215 235 L 65.105469 235 Z M 65.105469 140 " clip-rule="nonzero"/></clipPath></defs><g clip-path="url(#ab1f6bed5b)"><path fill="#c2c2c2" d="M 270.953125 309.886719 L 104.042969 309.886719 C 102.765625 309.886719 101.496094 309.824219 100.226562 309.695312 C 98.960938 309.570312 97.699219 309.382812 96.449219 309.132812 C 95.199219 308.882812 93.964844 308.570312 92.746094 308.199219 C 91.527344 307.828125 90.328125 307.398438 89.148438 306.910156 C 87.972656 306.421875 86.820312 305.878906 85.699219 305.277344 C 84.574219 304.675781 83.484375 304.019531 82.421875 303.308594 C 81.363281 302.601562 80.339844 301.84375 79.355469 301.035156 C 78.371094 300.226562 77.425781 299.371094 76.527344 298.46875 C 75.625 297.566406 74.769531 296.625 73.960938 295.640625 C 73.152344 294.652344 72.394531 293.632812 71.683594 292.570312 C 70.976562 291.511719 70.320312 290.421875 69.71875 289.296875 C 69.117188 288.171875 68.574219 287.023438 68.085938 285.84375 C 67.59375 284.667969 67.164062 283.46875 66.792969 282.25 C 66.421875 281.03125 66.113281 279.792969 65.863281 278.542969 C 65.613281 277.296875 65.425781 276.035156 65.300781 274.765625 C 65.171875 273.5 65.109375 272.226562 65.105469 270.953125 L 65.105469 250.09375 C 65.105469 249.59375 65.15625 249.09375 65.253906 248.601562 C 65.351562 248.109375 65.496094 247.632812 65.6875 247.167969 C 65.882812 246.703125 66.117188 246.261719 66.394531 245.84375 C 66.675781 245.425781 66.992188 245.042969 67.347656 244.6875 C 67.703125 244.332031 68.089844 244.015625 68.507812 243.734375 C 68.925781 243.457031 69.363281 243.21875 69.828125 243.027344 C 70.292969 242.835938 70.769531 242.691406 71.265625 242.59375 C 71.757812 242.496094 72.253906 242.445312 72.757812 242.445312 C 73.257812 242.445312 73.757812 242.496094 74.25 242.59375 C 74.742188 242.691406 75.21875 242.835938 75.683594 243.027344 C 76.148438 243.21875 76.589844 243.457031 77.007812 243.734375 C 77.421875 244.015625 77.808594 244.332031 78.164062 244.6875 C 78.519531 245.042969 78.835938 245.425781 79.117188 245.84375 C 79.394531 246.261719 79.632812 246.703125 79.824219 247.167969 C 80.015625 247.632812 80.160156 248.109375 80.257812 248.601562 C 80.355469 249.09375 80.40625 249.59375 80.40625 250.09375 L 80.40625 270.953125 C 80.40625 271.726562 80.445312 272.5 80.523438 273.269531 C 80.597656 274.039062 80.710938 274.804688 80.863281 275.5625 C 81.015625 276.320312 81.203125 277.070312 81.429688 277.8125 C 81.652344 278.550781 81.914062 279.277344 82.210938 279.992188 C 82.507812 280.707031 82.839844 281.40625 83.203125 282.089844 C 83.570312 282.773438 83.96875 283.433594 84.398438 284.078125 C 84.828125 284.722656 85.289062 285.34375 85.777344 285.941406 C 86.269531 286.539062 86.789062 287.113281 87.335938 287.660156 C 87.882812 288.207031 88.457031 288.726562 89.054688 289.214844 C 89.652344 289.707031 90.273438 290.167969 90.917969 290.597656 C 91.558594 291.027344 92.222656 291.425781 92.90625 291.789062 C 93.585938 292.15625 94.285156 292.488281 95 292.78125 C 95.714844 293.078125 96.441406 293.339844 97.183594 293.566406 C 97.925781 293.789062 98.675781 293.980469 99.433594 294.128906 C 100.191406 294.28125 100.957031 294.394531 101.726562 294.472656 C 102.496094 294.550781 103.269531 294.589844 104.042969 294.589844 L 270.953125 294.589844 C 271.726562 294.589844 272.5 294.550781 273.269531 294.472656 C 274.039062 294.394531 274.804688 294.28125 275.5625 294.128906 C 276.320312 293.980469 277.070312 293.789062 277.8125 293.566406 C 278.550781 293.339844 279.277344 293.078125 279.992188 292.78125 C 280.707031 292.488281 281.40625 292.15625 282.089844 291.789062 C 282.773438 291.425781 283.433594 291.027344 284.078125 290.597656 C 284.722656 290.167969 285.34375 289.707031 285.941406 289.214844 C 286.539062 288.726562 287.113281 288.207031 287.660156 287.660156 C 288.207031 287.113281 288.726562 286.539062 289.214844 285.941406 C 289.707031 285.34375 290.167969 284.722656 290.597656 284.078125 C 291.027344 283.433594 291.425781 282.773438 291.789062 282.089844 C 292.15625 281.40625 292.488281 280.707031 292.78125 279.992188 C 293.078125 279.277344 293.339844 278.550781 293.566406 277.8125 C 293.789062 277.070312 293.980469 276.320312 294.128906 275.5625 C 294.28125 274.804688 294.394531 274.039062 294.472656 273.269531 C 294.550781 272.5 294.589844 271.726562 294.589844 270.953125 L 294.589844 104.042969 C 294.589844 103.269531 294.550781 102.496094 294.472656 101.726562 C 294.394531 100.957031 294.28125 100.191406 294.128906 99.433594 C 293.980469 98.675781 293.789062 97.925781 293.566406 97.183594 C 293.339844 96.441406 293.078125 95.714844 292.78125 95 C 292.488281 94.285156 292.15625 93.585938 291.789062 92.90625 C 291.425781 92.222656 291.027344 91.558594 290.597656 90.917969 C 290.167969 90.273438 289.707031 89.652344 289.214844 89.054688 C 288.726562 88.457031 288.207031 87.882812 287.660156 87.335938 C 287.113281 86.789062 286.539062 86.269531 285.941406 85.777344 C 285.34375 85.289062 284.722656 84.828125 284.078125 84.398438 C 283.433594 83.964844 282.773438 83.570312 282.089844 83.203125 C 281.40625 82.839844 280.707031 82.507812 279.992188 82.210938 C 279.277344 81.914062 278.550781 81.652344 277.8125 81.429688 C 277.070312 81.203125 276.320312 81.015625 275.5625 80.863281 C 274.804688 80.710938 274.039062 80.597656 273.269531 80.523438 C 272.5 80.445312 271.726562 80.40625 270.953125 80.40625 L 93.613281 80.40625 C 92.746094 80.40625 91.886719 80.488281 91.035156 80.660156 C 90.1875 80.828125 89.359375 81.078125 88.558594 81.410156 C 87.757812 81.742188 86.996094 82.148438 86.277344 82.632812 C 85.554688 83.113281 84.886719 83.660156 84.273438 84.273438 C 83.660156 84.886719 83.113281 85.554688 82.632812 86.277344 C 82.148438 86.996094 81.742188 87.757812 81.410156 88.558594 C 81.078125 89.359375 80.828125 90.1875 80.660156 91.035156 C 80.488281 91.886719 80.40625 92.746094 80.40625 93.613281 L 80.40625 114.472656 C 80.40625 114.972656 80.355469 115.46875 80.257812 115.964844 C 80.160156 116.457031 80.015625 116.933594 79.824219 117.398438 C 79.632812 117.863281 79.394531 118.304688 79.117188 118.722656 C 78.835938 119.136719 78.519531 119.523438 78.164062 119.878906 C 77.808594 120.234375 77.421875 120.550781 77.007812 120.832031 C 76.589844 121.109375 76.148438 121.347656 75.683594 121.539062 C 75.21875 121.730469 74.742188 121.875 74.25 121.972656 C 73.757812 122.070312 73.257812 122.121094 72.757812 122.121094 C 72.253906 122.121094 71.757812 122.070312 71.265625 121.972656 C 70.769531 121.875 70.292969 121.730469 69.828125 121.539062 C 69.363281 121.347656 68.925781 121.109375 68.507812 120.832031 C 68.089844 120.550781 67.703125 120.234375 67.347656 119.878906 C 66.992188 119.523438 66.675781 119.136719 66.394531 118.722656 C 66.117188 118.304688 65.882812 117.863281 65.6875 117.398438 C 65.496094 116.933594 65.351562 116.457031 65.253906 115.964844 C 65.15625 115.46875 65.105469 114.972656 65.105469 114.472656 L 65.105469 93.613281 C 65.109375 92.679688 65.15625 91.75 65.25 90.820312 C 65.339844 89.890625 65.480469 88.972656 65.664062 88.054688 C 65.847656 87.140625 66.074219 86.238281 66.34375 85.34375 C 66.617188 84.453125 66.933594 83.574219 67.289062 82.710938 C 67.648438 81.851562 68.046875 81.007812 68.488281 80.1875 C 68.929688 79.363281 69.40625 78.5625 69.925781 77.789062 C 70.445312 77.011719 71 76.265625 71.59375 75.542969 C 72.183594 74.820312 72.8125 74.132812 73.472656 73.472656 C 74.132812 72.8125 74.820312 72.183594 75.542969 71.59375 C 76.265625 71 77.011719 70.445312 77.789062 69.925781 C 78.5625 69.40625 79.363281 68.929688 80.1875 68.488281 C 81.007812 68.046875 81.851562 67.648438 82.710938 67.289062 C 83.574219 66.933594 84.453125 66.617188 85.34375 66.34375 C 86.238281 66.074219 87.140625 65.847656 88.054688 65.664062 C 88.972656 65.480469 89.890625 65.339844 90.820312 65.25 C 91.75 65.15625 92.679688 65.109375 93.613281 65.105469 L 270.953125 65.105469 C 272.226562 65.109375 273.5 65.171875 274.765625 65.300781 C 276.035156 65.425781 277.292969 65.613281 278.542969 65.863281 C 279.792969 66.113281 281.03125 66.421875 282.25 66.792969 C 283.46875 67.164062 284.667969 67.59375 285.84375 68.085938 C 287.023438 68.574219 288.171875 69.117188 289.296875 69.71875 C 290.421875 70.320312 291.511719 70.976562 292.570312 71.683594 C 293.632812 72.394531 294.652344 73.152344 295.640625 73.960938 C 296.625 74.769531 297.566406 75.625 298.46875 76.527344 C 299.371094 77.425781 300.226562 78.371094 301.035156 79.355469 C 301.84375 80.339844 302.601562 81.363281 303.308594 82.421875 C 304.019531 83.484375 304.675781 84.574219 305.277344 85.699219 C 305.878906 86.820312 306.421875 87.972656 306.910156 89.148438 C 307.398438 90.328125 307.828125 91.527344 308.199219 92.746094 C 308.570312 93.964844 308.882812 95.199219 309.132812 96.449219 C 309.382812 97.699219 309.570312 98.960938 309.695312 100.226562 C 309.824219 101.496094 309.886719 102.765625 309.886719 104.042969 L 309.886719 270.953125 C 309.886719 272.226562 309.824219 273.5 309.695312 274.765625 C 309.570312 276.035156 309.382812 277.292969 309.132812 278.542969 C 308.882812 279.792969 308.570312 281.03125 308.199219 282.25 C 307.828125 283.46875 307.398438 284.667969 306.910156 285.84375 C 306.421875 287.023438 305.878906 288.171875 305.277344 289.296875 C 304.675781 290.421875 304.019531 291.511719 303.308594 292.570312 C 302.601562 293.632812 301.84375 294.652344 301.035156 295.640625 C 300.226562 296.625 299.371094 297.566406 298.46875 298.46875 C 297.566406 299.371094 296.625 300.226562 295.640625 301.035156 C 294.652344 301.84375 293.632812 302.601562 292.570312 303.308594 C 291.511719 304.019531 290.421875 304.675781 289.296875 305.277344 C 288.171875 305.878906 287.023438 306.421875 285.84375 306.910156 C 284.667969 307.398438 283.46875 307.828125 282.25 308.199219 C 281.03125 308.570312 279.792969 308.882812 278.542969 309.132812 C 277.296875 309.382812 276.035156 309.570312 274.765625 309.695312 C 273.5 309.824219 272.226562 309.886719 270.953125 309.886719 Z M 270.953125 309.886719 " fill-opacity="1" fill-rule="nonzero"/></g><g clip-path="url(#8eaa1eef1b)"><path fill="#c2c2c2" d="M 212.5625 182.09375 L 173.242188 142.773438 C 172.886719 142.417969 172.5 142.101562 172.082031 141.824219 C 171.664062 141.542969 171.222656 141.308594 170.757812 141.117188 C 170.292969 140.925781 169.816406 140.78125 169.324219 140.683594 C 168.828125 140.585938 168.332031 140.539062 167.828125 140.539062 C 167.328125 140.539062 166.828125 140.589844 166.335938 140.6875 C 165.84375 140.785156 165.363281 140.933594 164.902344 141.125 C 164.4375 141.316406 163.996094 141.554688 163.578125 141.832031 C 163.160156 142.113281 162.773438 142.429688 162.421875 142.785156 C 162.066406 143.140625 161.75 143.53125 161.46875 143.949219 C 161.191406 144.367188 160.957031 144.808594 160.765625 145.273438 C 160.570312 145.734375 160.425781 146.214844 160.328125 146.707031 C 160.234375 147.199219 160.183594 147.699219 160.183594 148.203125 C 160.183594 148.703125 160.234375 149.203125 160.332031 149.695312 C 160.433594 150.1875 160.578125 150.664062 160.769531 151.128906 C 160.964844 151.59375 161.199219 152.035156 161.480469 152.453125 C 161.757812 152.871094 162.078125 153.253906 162.433594 153.609375 L 188.671875 179.847656 L 72.757812 179.847656 C 72.253906 179.847656 71.757812 179.898438 71.265625 179.996094 C 70.769531 180.09375 70.292969 180.238281 69.828125 180.429688 C 69.363281 180.621094 68.925781 180.859375 68.507812 181.136719 C 68.089844 181.417969 67.703125 181.734375 67.347656 182.089844 C 66.992188 182.445312 66.675781 182.828125 66.394531 183.246094 C 66.117188 183.664062 65.882812 184.105469 65.6875 184.570312 C 65.496094 185.035156 65.351562 185.511719 65.253906 186.003906 C 65.15625 186.496094 65.105469 186.996094 65.105469 187.496094 C 65.105469 188 65.15625 188.496094 65.253906 188.988281 C 65.351562 189.480469 65.496094 189.960938 65.6875 190.425781 C 65.882812 190.890625 66.117188 191.328125 66.394531 191.746094 C 66.675781 192.164062 66.992188 192.550781 67.347656 192.90625 C 67.703125 193.261719 68.089844 193.578125 68.507812 193.859375 C 68.925781 194.136719 69.363281 194.371094 69.828125 194.566406 C 70.292969 194.757812 70.769531 194.902344 71.265625 195 C 71.757812 195.097656 72.253906 195.148438 72.757812 195.148438 L 188.671875 195.148438 L 162.433594 221.382812 C 162.078125 221.738281 161.761719 222.125 161.480469 222.542969 C 161.203125 222.960938 160.964844 223.402344 160.773438 223.867188 C 160.582031 224.328125 160.433594 224.808594 160.335938 225.300781 C 160.238281 225.792969 160.1875 226.289062 160.1875 226.792969 C 160.1875 227.292969 160.238281 227.792969 160.335938 228.285156 C 160.433594 228.777344 160.578125 229.257812 160.769531 229.722656 C 160.960938 230.183594 161.195312 230.625 161.472656 231.042969 C 161.753906 231.460938 162.070312 231.847656 162.421875 232.203125 C 162.777344 232.558594 163.164062 232.878906 163.582031 233.15625 C 164 233.4375 164.441406 233.671875 164.902344 233.867188 C 165.367188 234.058594 165.84375 234.203125 166.339844 234.304688 C 166.832031 234.402344 167.328125 234.453125 167.832031 234.453125 C 168.332031 234.453125 168.832031 234.40625 169.324219 234.308594 C 169.816406 234.210938 170.292969 234.066406 170.757812 233.875 C 171.222656 233.683594 171.664062 233.449219 172.082031 233.171875 C 172.5 232.890625 172.886719 232.574219 173.242188 232.222656 L 212.5625 192.902344 C 212.917969 192.546875 213.234375 192.160156 213.511719 191.746094 C 213.789062 191.328125 214.027344 190.886719 214.21875 190.421875 C 214.410156 189.957031 214.554688 189.480469 214.652344 188.988281 C 214.75 188.496094 214.800781 188 214.800781 187.496094 C 214.800781 186.996094 214.75 186.5 214.652344 186.007812 C 214.554688 185.515625 214.410156 185.035156 214.21875 184.574219 C 214.027344 184.109375 213.789062 183.667969 213.511719 183.25 C 213.234375 182.832031 212.917969 182.445312 212.5625 182.089844 Z M 212.5625 182.09375 " fill-opacity="1" fill-rule="nonzero"/></g></svg>