<svg xmlns="http://www.w3.org/2000/svg" xmlns:xlink="http://www.w3.org/1999/xlink" width="500" zoomAndPan="magnify" viewBox="0 0 375 374.999991" height="500" preserveAspectRatio="xMidYMid meet" version="1.0"><defs><clipPath id="8b5710847a"><path d="M 60.625 63.667969 L 314.125 63.667969 L 314.125 311.167969 L 60.625 311.167969 Z M 60.625 63.667969 " clip-rule="nonzero"/></clipPath></defs><g clip-path="url(#8b5710847a)"><path fill="#c2c2c2" d="M 313.429688 156.019531 C 311.230469 149.644531 305.59375 144.972656 298.808594 143.957031 L 232.789062 134.078125 L 204.089844 74.09375 C 201.070312 67.796875 194.601562 63.765625 187.496094 63.765625 C 180.394531 63.765625 173.929688 67.796875 170.910156 74.09375 L 142.210938 134.078125 L 76.179688 143.957031 C 69.398438 144.972656 63.761719 149.644531 61.574219 156.019531 C 59.390625 162.410156 61.042969 169.453125 65.832031 174.261719 L 114.21875 222.890625 L 102.996094 290.351562 C 101.855469 297.144531 104.78125 303.960938 110.515625 307.9375 C 113.664062 310.113281 117.367188 311.226562 121.070312 311.226562 C 124.117188 311.226562 127.167969 310.476562 129.9375 308.984375 L 187.496094 277.785156 L 245.066406 308.984375 C 247.835938 310.476562 250.886719 311.226562 253.925781 311.226562 C 257.628906 311.226562 261.328125 310.113281 264.488281 307.9375 C 270.222656 303.960938 273.128906 297.144531 272 290.351562 L 260.773438 222.890625 L 309.171875 174.261719 C 313.957031 169.445312 315.59375 162.40625 313.429688 156.019531 Z M 247.671875 210.351562 C 243.613281 214.417969 241.769531 220.160156 242.699219 225.789062 L 253.925781 293.246094 L 196.355469 262.066406 C 193.601562 260.566406 190.554688 259.824219 187.492188 259.824219 C 184.445312 259.824219 181.394531 260.574219 178.632812 262.066406 L 121.066406 293.246094 L 132.292969 225.789062 C 133.230469 220.15625 131.386719 214.417969 127.328125 210.351562 L 78.941406 161.71875 L 144.964844 151.820312 C 150.996094 150.917969 156.195312 147.117188 158.785156 141.695312 L 187.496094 81.734375 L 216.207031 141.707031 C 218.804688 147.128906 223.988281 150.917969 230.019531 151.832031 L 296.058594 161.730469 Z M 247.671875 210.351562 " fill-opacity="1" fill-rule="nonzero"/></g></svg>