<svg xmlns="http://www.w3.org/2000/svg" xmlns:xlink="http://www.w3.org/1999/xlink" width="500" zoomAndPan="magnify" viewBox="0 0 375 374.999991" height="500" preserveAspectRatio="xMidYMid meet" version="1.0"><defs><clipPath id="eadce64e1f"><path d="M 37.5 60.75 L 337.5 60.75 L 337.5 314.25 L 37.5 314.25 Z M 37.5 60.75 " clip-rule="nonzero"/></clipPath></defs><g clip-path="url(#eadce64e1f)"><path fill="#ffffff" d="M 72.273438 60.75 C 53.316406 60.75 37.703125 76.363281 37.703125 95.316406 L 37.703125 279.683594 C 37.703125 298.773438 53.179688 314.25 72.273438 314.25 L 302.726562 314.25 C 321.820312 314.25 337.296875 298.773438 337.296875 279.683594 L 337.296875 95.316406 C 337.296875 76.363281 321.683594 60.75 302.726562 60.75 Z M 72.273438 83.796875 L 302.726562 83.796875 C 309.238281 83.796875 314.25 88.808594 314.25 95.316406 L 314.25 109 C 310.621094 107.691406 306.78125 106.839844 302.726562 106.839844 L 72.273438 106.839844 C 68.21875 106.839844 64.378906 107.691406 60.75 109 L 60.75 95.316406 C 60.75 88.808594 65.761719 83.796875 72.273438 83.796875 Z M 72.273438 129.886719 L 302.726562 129.886719 C 309.238281 129.886719 314.25 134.898438 314.25 141.410156 L 314.25 155.09375 C 310.621094 153.785156 306.78125 152.933594 302.726562 152.933594 L 72.273438 152.933594 C 68.21875 152.933594 64.378906 153.785156 60.75 155.09375 L 60.75 141.410156 C 60.75 134.898438 65.761719 129.886719 72.273438 129.886719 Z M 72.273438 175.976562 L 302.726562 175.976562 C 309.238281 175.976562 314.25 180.988281 314.25 187.5 L 314.25 199.023438 L 256.636719 199.023438 C 242.507812 199.023438 229.597656 207.007812 223.285156 219.636719 L 220.851562 224.5 C 214.527344 237.128906 201.625 245.113281 187.5 245.113281 C 173.375 245.113281 160.460938 237.128906 154.148438 224.5 L 151.714844 219.636719 C 145.390625 207.007812 132.492188 199.023438 118.363281 199.023438 L 60.75 199.023438 L 60.75 187.5 C 60.75 180.988281 65.761719 175.976562 72.273438 175.976562 Z M 72.273438 175.976562 " fill-opacity="1" fill-rule="nonzero"/></g></svg>